<svg width="34" height="34" viewBox="0 0 34 34" fill="none" xmlns="http://www.w3.org/2000/svg">
<mask id="path-1-inside-1_211_2338" fill="white">
<path d="M20.0113 16.7644C19.8437 16.7644 19.6881 16.7184 19.5499 16.6442V16.6462C19.5499 16.9099 19.4474 17.1575 19.2614 17.343C19.0754 17.529 18.828 17.6315 18.5646 17.6315C18.3945 17.6315 18.2369 17.5843 18.0972 17.5082C18.0831 17.7494 17.9867 17.9749 17.8146 18.1471C17.6287 18.3331 17.3812 18.4355 17.1176 18.4355C16.594 18.4355 16.1688 18.0239 16.1381 17.508C15.9761 17.5956 15.7929 17.6415 15.604 17.6293C15.0889 17.5956 14.6855 17.1505 14.6855 16.6159V12.1842L14.1808 13.0585C13.9886 13.3928 13.6289 13.6005 13.2415 13.6005C13.0527 13.6005 12.8663 13.5509 12.7011 13.4563C12.4955 13.3371 12.3484 13.1457 12.2872 12.9168C12.2257 12.6877 12.2575 12.4481 12.3764 12.2427C12.3766 12.2427 14.0275 9.38383 14.1282 9.20822C14.1402 9.18182 14.1743 9.10524 14.2033 9.03997C14.231 8.97765 14.2548 8.91369 14.2776 8.84941C14.7755 7.44385 16.0082 6.57074 17.495 6.57074C19.4257 6.57074 20.9964 8.27396 20.9964 10.3675L20.9965 15.779C20.9965 16.0424 20.8942 16.2898 20.7084 16.476C20.5224 16.662 20.275 16.7645 20.0113 16.7645L20.0113 16.7644ZM17.495 7.09429C16.2175 7.09429 15.1993 7.81588 14.7711 9.0245C14.7437 9.10124 14.7152 9.17799 14.6819 9.25277C14.5853 9.46941 14.5853 9.46941 14.5581 9.50056L14.5545 9.49745C14.4197 9.7518 14.0192 10.4453 12.8297 12.5048C12.7809 12.5892 12.7679 12.6873 12.7928 12.7811C12.8181 12.8749 12.8786 12.9539 12.9624 13.0023C13.2225 13.1517 13.5787 13.0553 13.727 12.797L14.7206 11.0767C14.7799 10.9742 14.9 10.9238 15.0151 10.955C15.1296 10.9857 15.2091 11.0895 15.2091 11.2079V16.616C15.2091 16.8712 15.4016 17.0914 15.6383 17.107C15.7747 17.1142 15.902 17.0685 15.9976 16.973C16.0845 16.8861 16.1324 16.7703 16.1324 16.6465V13.1095C16.1324 12.9649 16.2497 12.8476 16.3943 12.8476C16.5389 12.8476 16.6562 12.9647 16.6562 13.1095L16.656 17.4505C16.656 17.705 16.8632 17.9121 17.1177 17.9121C17.2413 17.9121 17.3574 17.8642 17.4445 17.7773C17.5314 17.6902 17.5793 17.5741 17.5793 17.4505V13.1095C17.5793 12.9649 17.6964 12.8476 17.8412 12.8476C17.9858 12.8476 18.1031 12.9647 18.1031 13.1095L18.1029 16.6058V16.6465C18.1029 16.9008 18.3101 17.108 18.5647 17.108C18.6882 17.108 18.804 17.0599 18.8916 16.9727C18.9785 16.8859 19.0264 16.7701 19.0264 16.6463V13.1093C19.0264 12.9647 19.1435 12.8474 19.2883 12.8474C19.4329 12.8474 19.5502 12.9645 19.5502 13.1093L19.5498 15.7791C19.5498 16.0338 19.757 16.2409 20.0113 16.2409C20.1351 16.2409 20.2509 16.1929 20.3378 16.1061C20.4251 16.0189 20.4728 15.9028 20.4728 15.7791L20.4729 10.3676C20.4729 8.56292 19.1371 7.09434 17.495 7.09434L17.495 7.09429Z"/>
</mask>
<path d="M20.0113 16.7644C19.8437 16.7644 19.6881 16.7184 19.5499 16.6442V16.6462C19.5499 16.9099 19.4474 17.1575 19.2614 17.343C19.0754 17.529 18.828 17.6315 18.5646 17.6315C18.3945 17.6315 18.2369 17.5843 18.0972 17.5082C18.0831 17.7494 17.9867 17.9749 17.8146 18.1471C17.6287 18.3331 17.3812 18.4355 17.1176 18.4355C16.594 18.4355 16.1688 18.0239 16.1381 17.508C15.9761 17.5956 15.7929 17.6415 15.604 17.6293C15.0889 17.5956 14.6855 17.1505 14.6855 16.6159V12.1842L14.1808 13.0585C13.9886 13.3928 13.6289 13.6005 13.2415 13.6005C13.0527 13.6005 12.8663 13.5509 12.7011 13.4563C12.4955 13.3371 12.3484 13.1457 12.2872 12.9168C12.2257 12.6877 12.2575 12.4481 12.3764 12.2427C12.3766 12.2427 14.0275 9.38383 14.1282 9.20822C14.1402 9.18182 14.1743 9.10524 14.2033 9.03997C14.231 8.97765 14.2548 8.91369 14.2776 8.84941C14.7755 7.44385 16.0082 6.57074 17.495 6.57074C19.4257 6.57074 20.9964 8.27396 20.9964 10.3675L20.9965 15.779C20.9965 16.0424 20.8942 16.2898 20.7084 16.476C20.5224 16.662 20.275 16.7645 20.0113 16.7645L20.0113 16.7644ZM17.495 7.09429C16.2175 7.09429 15.1993 7.81588 14.7711 9.0245C14.7437 9.10124 14.7152 9.17799 14.6819 9.25277C14.5853 9.46941 14.5853 9.46941 14.5581 9.50056L14.5545 9.49745C14.4197 9.7518 14.0192 10.4453 12.8297 12.5048C12.7809 12.5892 12.7679 12.6873 12.7928 12.7811C12.8181 12.8749 12.8786 12.9539 12.9624 13.0023C13.2225 13.1517 13.5787 13.0553 13.727 12.797L14.7206 11.0767C14.7799 10.9742 14.9 10.9238 15.0151 10.955C15.1296 10.9857 15.2091 11.0895 15.2091 11.2079V16.616C15.2091 16.8712 15.4016 17.0914 15.6383 17.107C15.7747 17.1142 15.902 17.0685 15.9976 16.973C16.0845 16.8861 16.1324 16.7703 16.1324 16.6465V13.1095C16.1324 12.9649 16.2497 12.8476 16.3943 12.8476C16.5389 12.8476 16.6562 12.9647 16.6562 13.1095L16.656 17.4505C16.656 17.705 16.8632 17.9121 17.1177 17.9121C17.2413 17.9121 17.3574 17.8642 17.4445 17.7773C17.5314 17.6902 17.5793 17.5741 17.5793 17.4505V13.1095C17.5793 12.9649 17.6964 12.8476 17.8412 12.8476C17.9858 12.8476 18.1031 12.9647 18.1031 13.1095L18.1029 16.6058V16.6465C18.1029 16.9008 18.3101 17.108 18.5647 17.108C18.6882 17.108 18.804 17.0599 18.8916 16.9727C18.9785 16.8859 19.0264 16.7701 19.0264 16.6463V13.1093C19.0264 12.9647 19.1435 12.8474 19.2883 12.8474C19.4329 12.8474 19.5502 12.9645 19.5502 13.1093L19.5498 15.7791C19.5498 16.0338 19.757 16.2409 20.0113 16.2409C20.1351 16.2409 20.2509 16.1929 20.3378 16.1061C20.4251 16.0189 20.4728 15.9028 20.4728 15.7791L20.4729 10.3676C20.4729 8.56292 19.1371 7.09434 17.495 7.09434L17.495 7.09429Z" fill="#4CAF4F"/>
<path d="M20.0113 16.7644V15.8363H23.2903L20.4977 17.5549L20.0113 16.7644ZM19.5499 16.6442H18.6218V15.0935L19.9884 15.8263L19.5499 16.6442ZM19.2614 17.343L18.6051 16.6868L18.606 16.6859L19.2614 17.343ZM18.0972 17.5082L17.1707 17.454L17.2561 15.9933L18.5411 16.6931L18.0972 17.5082ZM17.8146 18.1471L18.4712 18.803L18.4709 18.8033L17.8146 18.1471ZM16.1381 17.508L15.6968 16.6915L16.9782 15.999L17.0646 17.453L16.1381 17.508ZM15.604 17.6293L15.5445 18.5555L15.5432 18.5555L15.604 17.6293ZM14.6855 12.1842L13.8817 11.7203L15.6136 8.71985V12.1842H14.6855ZM14.1808 13.0585L13.3762 12.596L13.377 12.5945L14.1808 13.0585ZM12.7011 13.4563L12.2397 14.2616L12.2356 14.2592L12.7011 13.4563ZM12.2872 12.9168L13.1836 12.6761L13.1839 12.6772L12.2872 12.9168ZM12.3764 12.2427L11.5733 11.7777L11.8414 11.3146H12.3764V12.2427ZM14.1282 9.20822L14.9735 9.59148L14.9553 9.63167L14.9333 9.66995L14.1282 9.20822ZM14.2033 9.03997L13.3553 8.66284L13.3553 8.66283L14.2033 9.03997ZM14.2776 8.84941L15.1524 9.15928L15.1524 9.15953L14.2776 8.84941ZM20.9964 10.3675L20.0683 10.3675V10.3675H20.9964ZM20.9965 15.779L21.9246 15.779V15.779H20.9965ZM20.7084 16.476L21.3653 17.1316L21.3647 17.1323L20.7084 16.476ZM20.0113 16.7645V17.6926H16.7323L19.5249 15.974L20.0113 16.7645ZM17.495 7.09429V6.16619H18.7254L18.3874 7.34925L17.495 7.09429ZM14.7711 9.0245L15.6459 9.33442L15.6452 9.33641L14.7711 9.0245ZM14.6819 9.25277L15.5297 9.63023L15.5295 9.63072L14.6819 9.25277ZM14.5581 9.50056L15.257 10.1112L14.6498 10.8061L13.9514 10.203L14.5581 9.50056ZM14.5545 9.49745L13.7344 9.06285L14.2797 8.03389L15.1611 8.79505L14.5545 9.49745ZM12.8297 12.5048L13.6334 12.9689L13.633 12.9696L12.8297 12.5048ZM12.7928 12.7811L11.8967 13.0224L11.8959 13.0195L12.7928 12.7811ZM12.9624 13.0023L12.5001 13.8071L12.4984 13.8061L12.9624 13.0023ZM13.727 12.797L12.922 12.335L12.9233 12.3328L13.727 12.797ZM14.7206 11.0767L13.9169 10.6125L13.9175 10.6115L14.7206 11.0767ZM15.0151 10.955L14.7749 11.8515L14.7726 11.8509L15.0151 10.955ZM15.6383 17.107L15.5893 18.0339L15.5773 18.0331L15.6383 17.107ZM15.9976 16.973L16.6539 17.6293L16.6533 17.6298L15.9976 16.973ZM16.6562 13.1095H17.5843V13.1095L16.6562 13.1095ZM16.656 17.4505H15.7279V17.4504L16.656 17.4505ZM17.4445 17.7773L18.1014 18.4329L18.1001 18.4342L17.4445 17.7773ZM18.1031 13.1095H19.0312V13.1096L18.1031 13.1095ZM18.1029 16.6058H17.1748V16.6058L18.1029 16.6058ZM18.8916 16.9727L19.5472 17.6295L19.5466 17.6301L18.8916 16.9727ZM19.5502 13.1093H20.4783V13.1094L19.5502 13.1093ZM19.5498 15.7791H18.6218V15.779L19.5498 15.7791ZM20.3378 16.1061L20.9941 16.7624L20.9935 16.763L20.3378 16.1061ZM20.4728 15.7791H19.5447V15.7791L20.4728 15.7791ZM20.4729 10.3676H21.401V10.3677L20.4729 10.3676ZM17.495 7.09434V8.02243H16.2646L16.6026 6.83937L17.495 7.09434ZM20.0113 17.6925C19.6696 17.6925 19.3645 17.5979 19.1113 17.4622L19.9884 15.8263C20.0004 15.8327 20.008 15.8352 20.0111 15.836C20.0137 15.8367 20.0133 15.8363 20.0113 15.8363V17.6925ZM20.478 16.6442V16.6462H18.6218V16.6442H20.478ZM20.478 16.6462C20.478 17.1553 20.2782 17.6397 19.9168 18.0001L18.606 16.6859C18.6126 16.6793 18.6159 16.6736 18.6178 16.669C18.6198 16.6643 18.6218 16.6572 18.6218 16.6462H20.478ZM19.9177 17.9993C19.5575 18.3594 19.0739 18.5596 18.5646 18.5596V16.7034C18.5752 16.7034 18.5822 16.7015 18.587 16.6995C18.5917 16.6975 18.5979 16.694 18.6051 16.6868L19.9177 17.9993ZM18.5646 18.5596C18.2184 18.5596 17.9095 18.4627 17.6533 18.3232L18.5411 16.6931C18.5531 16.6997 18.5608 16.7022 18.5638 16.703C18.5664 16.7037 18.5662 16.7034 18.5646 16.7034V18.5596ZM19.0237 17.5623C18.997 18.0191 18.8117 18.4622 18.4712 18.803L17.158 17.4912C17.1615 17.4877 17.1635 17.4847 17.1652 17.4808C17.167 17.4767 17.1699 17.4682 17.1707 17.454L19.0237 17.5623ZM18.4709 18.8033C18.1107 19.1636 17.6271 19.3636 17.1176 19.3636V17.5075C17.1284 17.5075 17.1355 17.5055 17.1403 17.5035C17.145 17.5016 17.1511 17.4981 17.1584 17.4908L18.4709 18.8033ZM17.1176 19.3636C16.093 19.3636 15.2709 18.5595 15.2117 17.563L17.0646 17.453C17.0655 17.4688 17.072 17.4826 17.0834 17.4935C17.089 17.4988 17.0946 17.5022 17.0995 17.5042C17.1039 17.506 17.1094 17.5075 17.1176 17.5075V19.3636ZM16.5794 18.3245C16.2796 18.4865 15.9242 18.5799 15.5445 18.5555L15.6635 16.7032C15.6635 16.7032 15.6655 16.7034 15.6704 16.7022C15.6756 16.701 15.6847 16.6981 15.6968 16.6915L16.5794 18.3245ZM15.5432 18.5555C14.5128 18.4879 13.7574 17.6115 13.7574 16.6159H15.6136C15.6136 16.6472 15.6249 16.6714 15.6392 16.6872C15.6531 16.7025 15.6626 16.7031 15.6647 16.7032L15.5432 18.5555ZM13.7574 16.6159V12.1842H15.6136V16.6159H13.7574ZM15.4893 12.6482L14.9846 13.5224L13.377 12.5945L13.8817 11.7203L15.4893 12.6482ZM14.9855 13.521C14.6269 14.1449 13.9593 14.5285 13.2415 14.5285V12.6724C13.2984 12.6724 13.3504 12.6408 13.3762 12.596L14.9855 13.521ZM13.2415 14.5285C12.8905 14.5285 12.545 14.4365 12.2397 14.2616L13.1626 12.651C13.1875 12.6653 13.2149 12.6724 13.2415 12.6724V14.5285ZM12.2356 14.2592C11.819 14.0177 11.5157 13.6245 11.3906 13.1563L13.1839 12.6772C13.183 12.674 13.1807 12.6684 13.1762 12.6626C13.1718 12.6568 13.1677 12.654 13.1666 12.6534L12.2356 14.2592ZM11.3909 13.1574C11.2653 12.6895 11.331 12.196 11.5733 11.7777L13.1796 12.7078C13.1809 12.7055 13.1832 12.7002 13.1842 12.6927C13.1852 12.6852 13.1844 12.6792 13.1836 12.6761L11.3909 13.1574ZM12.3764 11.3146C11.9212 11.434 11.5804 11.7656 11.5779 11.7698C11.577 11.7713 11.5757 11.7734 11.5753 11.7741C11.5751 11.7745 11.5747 11.7752 11.5746 11.7754C11.5745 11.7755 11.5743 11.7758 11.5743 11.7759C11.5742 11.7761 11.5742 11.7761 11.5745 11.7755C11.5752 11.7744 11.5762 11.7725 11.5778 11.7699C11.5808 11.7646 11.5854 11.7567 11.5915 11.7462C11.6035 11.7253 11.6213 11.6946 11.644 11.6553C11.6893 11.5768 11.7542 11.4645 11.8324 11.3291C11.9887 11.0584 12.1982 10.6956 12.4109 10.3273C12.8369 9.58941 13.2737 8.83275 13.3231 8.74649L14.9333 9.66995C14.8821 9.7593 14.443 10.5199 14.0184 11.2554C13.8057 11.6238 13.5961 11.9866 13.4397 12.2574C13.3616 12.3928 13.2966 12.5052 13.2513 12.5838C13.2286 12.623 13.2108 12.6539 13.1986 12.6749C13.1925 12.6855 13.1878 12.6936 13.1846 12.6992C13.183 12.7019 13.1817 12.7042 13.1807 12.7059C13.1803 12.7066 13.1797 12.7076 13.1792 12.7085C13.179 12.7088 13.1784 12.7099 13.1777 12.7111C13.1772 12.7119 13.1759 12.7141 13.175 12.7156C13.1725 12.7199 12.8317 13.0515 12.3764 13.1708V11.3146ZM13.283 8.82496C13.2932 8.80243 13.3255 8.72979 13.3553 8.66284L15.0513 9.41709C15.0231 9.48069 14.9872 9.56121 14.9735 9.59148L13.283 8.82496ZM13.3553 8.66283C13.3682 8.63382 13.3825 8.59676 13.4029 8.53928L15.1524 9.15953C15.1272 9.23062 15.0939 9.32147 15.0513 9.4171L13.3553 8.66283ZM13.4028 8.53953C14.0314 6.76491 15.6135 5.64265 17.495 5.64265V7.49884C16.4029 7.49884 15.5196 8.12278 15.1524 9.15928L13.4028 8.53953ZM17.495 5.64265C20.0076 5.64265 21.9245 7.83359 21.9245 10.3675H20.0683C20.0683 8.71432 18.8438 7.49884 17.495 7.49884V5.64265ZM21.9245 10.3675L21.9246 15.779L20.0685 15.779L20.0683 10.3675L21.9245 10.3675ZM21.9246 15.779C21.9246 16.288 21.725 16.7713 21.3653 17.1316L20.0515 15.8203C20.0589 15.813 20.0625 15.8067 20.0645 15.8019C20.0665 15.797 20.0685 15.7898 20.0685 15.779H21.9246ZM21.3647 17.1323C21.0044 17.4925 20.5208 17.6926 20.0113 17.6926V15.8364C20.0222 15.8364 20.0293 15.8344 20.0341 15.8324C20.0388 15.8305 20.0449 15.827 20.0521 15.8197L21.3647 17.1323ZM19.5249 15.974L19.5249 15.974L20.4977 17.5549L20.4977 17.5549L19.5249 15.974ZM17.495 8.02238C16.6126 8.02238 15.9435 8.49442 15.6459 9.33442L13.8963 8.71458C14.455 7.13733 15.8224 6.16619 17.495 6.16619V8.02238ZM15.6452 9.33641C15.6159 9.41851 15.5778 9.5222 15.5297 9.63023L13.834 8.87532C13.8525 8.83379 13.8715 8.78398 13.897 8.71258L15.6452 9.33641ZM15.5295 9.63072C15.487 9.72604 15.4514 9.80654 15.4242 9.86107C15.4073 9.89491 15.3799 9.94707 15.3402 10.0048C15.2999 10.0634 15.2602 10.1075 15.257 10.1112L13.8592 8.88991C13.8613 8.88742 13.8606 8.88823 13.8595 8.8895C13.8581 8.89115 13.8545 8.89536 13.8498 8.90113C13.8449 8.9071 13.8387 8.91482 13.8317 8.924C13.8247 8.93326 13.8176 8.94311 13.8104 8.9535C13.7959 8.97466 13.7847 8.99319 13.7767 9.0072C13.7693 9.02029 13.7648 9.02934 13.7637 9.03138C13.7627 9.03349 13.7633 9.03225 13.7665 9.0255C13.7695 9.01895 13.7739 9.00953 13.7801 8.99582C13.7862 8.98222 13.7936 8.9658 13.8027 8.94551C13.8117 8.92525 13.8221 8.90204 13.8342 8.87483L15.5295 9.63072ZM13.9514 10.203L13.9478 10.1999L15.1611 8.79505L15.1647 8.79816L13.9514 10.203ZM15.3745 9.93205C15.2292 10.2061 14.8146 10.9239 13.6334 12.9689L12.0261 12.0406C13.2238 9.96678 13.6101 9.29747 13.7344 9.06285L15.3745 9.93205ZM13.633 12.9696C13.7073 12.8413 13.728 12.6864 13.6898 12.5427L11.8959 13.0195C11.8078 12.6881 11.8544 12.3372 12.0264 12.0399L13.633 12.9696ZM13.689 12.5398C13.6508 12.398 13.557 12.2739 13.4264 12.1985L12.4984 13.8061C12.2003 13.634 11.9854 13.3518 11.8967 13.0224L13.689 12.5398ZM13.4247 12.1975C13.319 12.1368 13.2163 12.1372 13.1453 12.1563C13.0747 12.1754 12.984 12.2269 12.922 12.335L14.5319 13.259C14.1274 13.9637 13.203 14.2108 12.5001 13.8071L13.4247 12.1975ZM12.9233 12.3328L13.9169 10.6125L15.5243 11.5409L14.5306 13.2612L12.9233 12.3328ZM13.9175 10.6115C14.1856 10.1487 14.7327 9.91708 15.2576 10.0591L14.7726 11.8509C15.0673 11.9306 15.3743 11.7997 15.5237 11.5419L13.9175 10.6115ZM15.2553 10.0585C15.776 10.198 16.1372 10.6699 16.1372 11.2079H14.281C14.281 11.5091 14.4832 11.7733 14.7749 11.8515L15.2553 10.0585ZM16.1372 11.2079V16.616H14.281V11.2079H16.1372ZM16.1372 16.616C16.1372 16.5103 16.098 16.4141 16.0337 16.3405C15.9695 16.2671 15.8562 16.1912 15.6992 16.1809L15.5773 18.0331C14.7961 17.9817 14.281 17.3011 14.281 16.616H16.1372ZM15.6873 16.1802C15.5777 16.1744 15.4437 16.2146 15.3419 16.3162L16.6533 17.6298C16.3603 17.9223 15.9718 18.054 15.5893 18.0338L15.6873 16.1802ZM15.3413 16.3167C15.2533 16.4048 15.2043 16.5255 15.2043 16.6465H17.0605C17.0605 17.0151 16.9158 17.3674 16.6539 17.6293L15.3413 16.3167ZM15.2043 16.6465V13.1095H17.0605V16.6465H15.2043ZM15.2043 13.1095C15.2043 12.4523 15.7371 11.9195 16.3943 11.9195V13.7757C16.7622 13.7757 17.0605 13.4774 17.0605 13.1095H15.2043ZM16.3943 11.9195C17.0511 11.9195 17.5843 12.4518 17.5843 13.1095H15.7281C15.7281 13.4777 16.0267 13.7757 16.3943 13.7757V11.9195ZM17.5843 13.1095L17.5841 17.4505L15.7279 17.4504L15.7281 13.1095L17.5843 13.1095ZM17.5841 17.4505C17.5841 17.1924 17.3757 16.984 17.1177 16.984V18.8402C16.3506 18.8402 15.7279 18.2176 15.7279 17.4505H17.5841ZM17.1177 16.984C16.9969 16.984 16.8768 17.0327 16.7889 17.1204L18.1001 18.4342C17.8381 18.6957 17.4858 18.8402 17.1177 18.8402V16.984ZM16.7876 17.1217C16.6999 17.2096 16.6512 17.3297 16.6512 17.4505H18.5074C18.5074 17.8185 18.363 18.1709 18.1014 18.4329L16.7876 17.1217ZM16.6512 17.4505V13.1095H18.5074V17.4505H16.6512ZM16.6512 13.1095C16.6512 12.4527 17.1834 11.9195 17.8412 11.9195V13.7757C18.2094 13.7757 18.5074 13.4771 18.5074 13.1095H16.6512ZM17.8412 11.9195C18.498 11.9195 19.0312 12.4518 19.0312 13.1095H17.175C17.175 13.4777 17.4737 13.7757 17.8412 13.7757V11.9195ZM19.0312 13.1096L19.031 16.6059L17.1748 16.6058L17.175 13.1095L19.0312 13.1096ZM19.031 16.6058V16.6465H17.1748V16.6058H19.031ZM19.031 16.6465C19.031 16.3878 18.8222 16.1799 18.5647 16.1799V18.036C17.7979 18.036 17.1748 17.4139 17.1748 16.6465H19.031ZM18.5647 16.1799C18.4414 16.1799 18.322 16.23 18.2366 16.3152L19.5466 17.6301C19.286 17.8898 18.935 18.036 18.5647 18.036V16.1799ZM18.2359 16.3158C18.1472 16.4044 18.0983 16.5255 18.0983 16.6463H19.9545C19.9545 17.0148 19.8098 17.3674 19.5472 17.6295L18.2359 16.3158ZM18.0983 16.6463V13.1093H19.9545V16.6463H18.0983ZM18.0983 13.1093C18.0983 12.4525 18.6305 11.9193 19.2883 11.9193V13.7755C19.6564 13.7755 19.9545 13.4769 19.9545 13.1093H18.0983ZM19.2883 11.9193C19.9451 11.9193 20.4783 12.4516 20.4783 13.1093H18.6221C18.6221 13.4775 18.9207 13.7755 19.2883 13.7755V11.9193ZM20.4783 13.1094L20.4779 15.7792L18.6218 15.779L18.6221 13.1092L20.4783 13.1094ZM20.4779 15.7791C20.4779 15.5217 20.27 15.3128 20.0113 15.3128V17.169C19.244 17.169 18.6218 16.5459 18.6218 15.7791H20.4779ZM20.0113 15.3128C19.8896 15.3128 19.7695 15.3621 19.6822 15.4493L20.9935 16.763C20.7323 17.0236 20.3807 17.169 20.0113 17.169V15.3128ZM19.6816 15.4499C19.5932 15.5383 19.5447 15.6589 19.5447 15.7791H21.4009C21.4009 16.1467 21.2569 16.4995 20.9941 16.7624L19.6816 15.4499ZM19.5447 15.7791L19.5449 10.3676L21.401 10.3677L21.4009 15.7792L19.5447 15.7791ZM19.5449 10.3676C19.5449 8.99091 18.5438 8.02243 17.495 8.02243V6.16625C19.7303 6.16625 21.401 8.13493 21.401 10.3676H19.5449ZM16.6026 6.83937L16.6026 6.83932L18.3874 7.34925L18.3874 7.34931L16.6026 6.83937Z" fill="#4CAF4F" mask="url(#path-1-inside-1_211_2338)"/>
<path d="M11.5287 21.7394C11.4044 21.8141 11.2437 21.7738 11.1694 21.6497C11.095 21.5257 11.1353 21.3648 11.2591 21.2904M11.5287 21.7394L13.7913 18.6948C14.0099 18.5635 14.2982 18.6153 14.433 18.8103M11.5287 21.7394L14.5616 19.9199H14.5618L14.5621 19.9197M11.5287 21.7394L15.7261 20.298C15.8321 20.2344 15.9068 20.1337 15.9367 20.0142M11.2591 21.2904L14.2922 19.4708C14.3981 19.4072 14.4731 19.3064 14.5029 19.1871M11.2591 21.2904L11.2898 21.3415L11.3938 21.5149L11.3941 21.5152L11.4409 21.5934L11.4979 21.6883L11.498 21.6882L11.498 21.6882L11.4983 21.688M11.2591 21.2904L11.2899 21.3415M14.5029 19.1871C14.5357 19.0563 14.5108 18.9225 14.433 18.8103M14.5029 19.1871L14.5778 19.2059L14.5706 19.052C14.5657 18.9461 14.5347 18.8521 14.4823 18.7766L14.4821 18.7763L14.433 18.8103M14.5029 19.1871L14.5778 19.2059L14.5851 19.3647L14.4333 19.4558H14.4331L14.3229 19.5219L14.3229 19.5219L14.3228 19.522L11.29 21.3414M14.433 18.8103L14.4821 18.7763L12.2428 22.9288C12.338 22.8715 12.3695 22.7476 12.3118 22.6515C12.2545 22.5561 12.1303 22.5248 12.0345 22.5822L15.0674 20.7628C15.1371 20.7209 15.2101 20.6893 15.2847 20.6676L15.7551 20.3464L15.7552 20.3464L15.781 20.3287C15.8914 20.2533 15.9644 20.1489 15.9944 20.0287L15.9945 20.0286L15.9367 20.0142M11.29 21.3414C11.3855 21.2844 11.5097 21.3153 11.5673 21.4108C11.5674 21.411 11.5675 21.4112 11.5676 21.4114C11.6249 21.5074 11.5933 21.6309 11.4983 21.688M11.29 21.3414C11.29 21.3415 11.2899 21.3415 11.2899 21.3415M11.29 21.3414L11.2899 21.3415M11.4983 21.688L14.5309 19.8688L14.531 19.8688L14.5311 19.8687C14.5312 19.8686 14.5313 19.8685 14.5314 19.8685L14.5616 19.9189L14.5618 19.9191L14.5621 19.9197M11.4983 21.688L11.3943 21.5151L11.3941 21.5148L11.3589 21.4563L11.2899 21.3415M14.5621 19.9197V19.8492C14.6206 19.8109 14.6742 19.7665 14.722 19.7169L15.2212 19.4563L15.2212 19.4563L15.2489 19.4419C15.3291 19.4 15.4101 19.3804 15.4869 19.3804C15.5285 19.3804 15.5714 19.3855 15.615 19.3964C15.6151 19.3964 15.6151 19.3964 15.6151 19.3964C15.6153 19.3964 15.6154 19.3965 15.6156 19.3965L15.7133 19.0041M14.5621 19.9197L15.2512 19.5063C15.3568 19.443 15.4805 19.4244 15.6007 19.4543C15.7202 19.4841 15.8211 19.5589 15.8845 19.6647C15.948 19.7706 15.9665 19.8948 15.9367 20.0142M15.7133 19.0041C15.7132 19.0041 15.7132 19.0041 15.7132 19.0041M15.7133 19.0041C15.9524 19.0639 16.1557 19.2148 16.2824 19.4258L16.3335 19.3952M15.7133 19.0041L15.7277 18.9462M15.7132 19.0041L15.6152 19.3964C15.751 19.4303 15.8635 19.5137 15.9355 19.6338C15.9355 19.6339 15.9356 19.634 15.9356 19.634C15.9356 19.634 15.9356 19.6341 15.9356 19.6341C16.0079 19.7548 16.0283 19.8932 15.9945 20.0284L15.9945 20.0286L15.9367 20.0142M15.7132 19.0041C15.7132 19.0041 15.7131 19.0041 15.7131 19.0041L15.7125 19.0039C15.6408 18.9861 15.5681 18.977 15.4958 18.9764M15.7132 19.0041L15.7277 18.9462M15.2756 21.1094L15.5372 20.9525L15.807 21.1116C15.8877 21.1593 15.9488 21.2189 15.9901 21.2879L15.9902 21.2882C15.9903 21.2882 15.9903 21.2883 15.9904 21.2884L15.9395 21.319M15.2756 21.1094L16.0494 21.683C16.0831 21.5473 16.0626 21.409 15.9904 21.2884L15.9395 21.319M15.2756 21.1094L15.3063 21.1606M15.2756 21.1094L15.2756 21.1094L15.3063 21.1606M15.9395 21.319C15.8084 21.1007 15.5242 21.0297 15.3063 21.1606M15.9395 21.319C16.0031 21.4248 16.0216 21.5491 15.9918 21.6686L15.3063 21.1606M16.3817 21.0387C16.3839 21.0423 16.3861 21.0459 16.3883 21.0496L16.3817 21.0387ZM16.3817 21.0387C16.366 21.0509 16.3501 21.0629 16.3339 21.0745C16.335 21.0763 16.336 21.078 16.3371 21.0798L16.3817 21.0387ZM16.3094 20.331C16.3429 20.2669 16.369 20.1984 16.3869 20.1267L16.3094 20.331ZM16.3094 20.331C16.3261 20.3413 16.3426 20.352 16.3589 20.3631C16.3962 20.2938 16.4251 20.2195 16.4447 20.141C16.5085 19.886 16.4689 19.6212 16.3335 19.3952M16.3094 20.331L16.3869 20.1266C16.4467 19.8875 16.409 19.6372 16.2826 19.4262L16.2825 19.4259C16.2824 19.4259 16.2824 19.4259 16.2824 19.4258L16.3335 19.3952M16.3335 19.3952C16.1982 19.1696 15.983 19.01 15.7277 18.9462M15.7277 18.9462L15.4906 18.9164M15.4906 18.9164C15.4928 18.9364 15.4945 18.9564 15.4958 18.9764M15.4906 18.9164C15.4894 18.9164 15.4882 18.9163 15.4869 18.9163C15.33 18.9163 15.1758 18.9565 15.0342 19.0305M15.4906 18.9164L15.0342 19.0305M15.4958 18.9764C15.4966 18.9872 15.4972 18.9981 15.4977 19.009L15.4869 19.0095L15.1988 19.0228M15.4958 18.9764C15.4929 18.9763 15.4899 18.9763 15.4869 18.9763C15.389 18.9764 15.2919 18.9921 15.1988 19.0228M15.1988 19.0228L15.0342 19.0305M15.1988 19.0228C15.1516 19.0385 15.1054 19.058 15.0607 19.0813C15.0445 19.0898 15.0284 19.0988 15.0126 19.1082L15.0125 19.1083L14.9795 19.1281M15.0342 19.0305L14.7697 19.254L14.7698 19.2539L14.9531 19.2998C14.9531 19.2999 14.953 19.2999 14.953 19.3C14.9673 19.2429 14.9761 19.1854 14.9795 19.1281M15.0342 19.0305L14.9633 18.8948M15.0342 19.0305C15.0268 18.8724 14.9851 18.7167 14.9051 18.5777C14.887 18.5858 14.8689 18.5943 14.8511 18.6031M14.9795 19.1281C14.9813 19.0963 14.9816 19.0646 14.9801 19.033C14.978 18.9864 14.9724 18.9403 14.9633 18.8948M14.9795 19.1281L14.9633 18.8948M14.9633 18.8948L14.8194 18.6191C14.8299 18.6136 14.8405 18.6083 14.8511 18.6031M14.9633 18.8948L14.8146 18.5461C14.8275 18.5647 14.8396 18.5837 14.8511 18.6031M14.9633 18.8948C14.9429 18.7927 14.9052 18.6943 14.8511 18.6031M16.0427 20.7119L16.122 20.5774C16.0877 20.6096 16.0507 20.6392 16.0114 20.6661C15.9963 20.6764 15.9809 20.6863 15.9651 20.6958L15.9648 20.696L15.9313 20.7161L16.0427 20.7119ZM8.63191 18.5523L8.57916 18.5245C8.56946 18.542 8.54531 18.5855 8.50964 18.6497C8.50081 18.6657 8.49127 18.6828 8.48108 18.7012C8.49926 18.7103 8.5176 18.7182 8.53597 18.7252C8.56734 18.6686 8.59932 18.611 8.63191 18.5523ZM12.7789 23.8229C12.7788 23.823 12.7788 23.823 12.7787 23.823L12.7789 23.8229Z" fill="#4CAF4F" stroke="#4CAF4F" stroke-width="0.928093"/>
<path d="M24.4807 19.3884L24.4806 19.3885L24.4807 19.3884ZM24.4807 19.3884C24.3834 19.2143 24.3873 18.9998 24.4903 18.8281L24.4807 19.3884ZM18.739 18.9762C18.6665 18.9768 18.5936 18.986 18.5217 19.004L18.739 18.9762ZM18.739 18.9762C18.7404 18.9562 18.7422 18.9363 18.7443 18.9163L18.739 18.9762ZM24.063 19.7139L24.0236 19.6429L24.063 19.7139ZM22.9448 21.3414C22.9447 21.3413 22.9446 21.3413 22.9445 21.3412L22.9447 21.3413L22.9448 21.3414ZM21.456 23.8234C21.4559 23.8233 21.4558 23.8232 21.4557 23.8232L21.456 23.8234ZM21.4555 23.8231L21.4556 23.8231L21.4555 23.8231Z" fill="#4CAF4F" stroke="#4CAF4F" stroke-width="0.928093"/>
</svg>
